<?xml version="1.0" encoding="UTF-8"?>
<svg version="1.1" xmlns="http://www.w3.org/2000/svg" width="1024" height="1024">
<path d="M0 0 C337.92 0 675.84 0 1024 0 C1024 337.92 1024 675.84 1024 1024 C686.08 1024 348.16 1024 0 1024 C0 686.08 0 348.16 0 0 Z " fill="#303D9A" transform="translate(0,0)"/>
<path d="M0 0 C0.94166016 0.50853516 0.94166016 0.50853516 1.90234375 1.02734375 C9.59663041 5.75840404 14.02767348 13.70383042 16.41552734 22.19213867 C17.46218151 27.2203632 17.48435747 32.19293116 17.4375 37.3125 C17.43266602 38.95593384 17.43266602 38.95593384 17.42773438 40.63256836 C17.28903307 48.68740732 16.30647129 55.57520064 13 63 C13.66 63 14.32 63 15 63 C15.350625 61.783125 15.70125 60.56625 16.0625 59.3125 C21.51147445 43.06742665 32.11208518 29.07209378 44 17 C44.79148437 16.18402344 45.58296875 15.36804688 46.3984375 14.52734375 C60.02461445 1.33122886 77.51212549 -4.71245011 96.30639648 -4.53686523 C107.90196676 -4.10786813 116.53858054 -0.57243428 124.84765625 7.62890625 C137.11394622 21.1418609 137.73738978 36.12060466 137.14697266 53.57421875 C136.97390447 56.43070632 136.58207675 59.19845989 136 62 C136.66 62 137.32 62 138 62 C138.12955078 61.00419922 138.12955078 61.00419922 138.26171875 59.98828125 C141.55688003 46.65072367 151.45793746 34.43586205 160 24 C160.44520996 23.45553223 160.89041992 22.91106445 161.34912109 22.35009766 C174.01504693 7.1096795 191.42751151 -2.34163046 211.20410156 -4.20800781 C225.48987083 -5.27749869 238.48778064 -3.20201277 249.625 6.375 C266.38422337 23.21844057 268.20993377 42.1048604 268.18286133 64.90698242 C268.09957458 77.06914055 266.89053699 88.54768349 264.58203125 100.48046875 C263.03179875 108.62610578 261.72365821 116.79936455 260.5 125 C260.3409166 126.06250977 260.3409166 126.06250977 260.17861938 127.14648438 C259.43942142 132.09579448 258.71538128 137.04719582 258 142 C257.82903809 143.17949219 257.65807617 144.35898437 257.48193359 145.57421875 C253.29533497 166.01967974 253.29533497 166.01967974 256.5234375 185.453125 C257.01070312 185.96359375 257.49796875 186.4740625 258 187 C261.46941546 186.54177532 264.67395049 186.10868317 268 185 C269.06837759 183.13983951 269.06837759 183.13983951 270 181 C270.88560482 179.76344343 271.78246969 178.53491081 272.6875 177.3125 C277.3369053 170.49337223 280.03023424 162.65285792 283 155 C288.51196873 156.47754295 294.01781111 157.97767843 299.5 159.5625 C300.2940625 159.79066406 301.088125 160.01882813 301.90625 160.25390625 C304 161 304 161 307 163 C304.83668308 172.37437333 300.46999192 180.56500329 296 189 C295.44183594 190.08023438 294.88367188 191.16046875 294.30859375 192.2734375 C285.19083715 209.01495685 271.06777974 220.83715458 253 227 C251.95199219 227.36480469 250.90398437 227.72960937 249.82421875 228.10546875 C244.89241321 229.25907801 240.2354899 229.36811794 235.1875 229.375 C234.25357422 229.39949219 233.31964844 229.42398438 232.35742188 229.44921875 C223.11213348 229.48771405 215.43548979 227.0734704 208.625 220.625 C207.83351563 219.89539063 207.04203125 219.16578125 206.2265625 218.4140625 C196.6582042 208.03994771 195.33531486 194.62093919 195.58837891 181.07543945 C195.62493547 179.06604708 195.6293954 177.05851977 195.62890625 175.04882812 C195.67570094 166.25831265 196.50190369 157.70068725 197.72381592 149.00222778 C198.18471935 145.66085618 198.58944558 142.31270531 199 138.96484375 C199.16637756 137.62691714 199.33304415 136.28902644 199.5 134.95117188 C199.75033959 132.94234333 200.00049762 130.93349326 200.25 128.92456055 C203.5294924 102.52528724 203.5294924 102.52528724 205.5625 90.3125 C207.24916763 79.76898824 208.09176024 69.42778608 208.25 58.75 C208.27151123 57.90961182 208.29302246 57.06922363 208.31518555 56.20336914 C208.34529262 50.45859913 207.45338553 46.21996921 205 41 C201.30709554 38.25179203 197.7590225 37.37289052 193.1328125 37.6015625 C183.05931056 39.4834255 176.50309331 48.00411124 170.9375 55.94140625 C158.67450958 75.07837763 150.3921504 97.01282965 145 119 C144.68675781 120.07894531 144.37351562 121.15789062 144.05078125 122.26953125 C141.60879024 130.71515232 139.93506262 139.22761492 138.375 147.875 C138.16883057 149.00897217 137.96266113 150.14294434 137.75024414 151.3112793 C134.74092153 168.46747025 133.64451759 185.16584186 133.375 202.5625 C133.25125 209.636875 133.1275 216.71125 133 224 C113.53 224 94.06 224 74 224 C73.67665555 186.6537161 76.38402983 150.50314498 81.60693359 113.54736328 C84.20035515 95.1636465 86.13108097 77.01765879 86.375 58.4375 C86.40110352 57.28878418 86.42720703 56.14006836 86.45410156 54.95654297 C86.46723211 48.66982675 86.29450094 44.7440188 82 40 C78.55363307 37.38551474 75.20615186 37.52511189 71 38 C62.0818742 41.42026378 55.55934307 46.569569 50.125 54.375 C49.69936768 54.98150391 49.27373535 55.58800781 48.83520508 56.21289062 C42.10779527 66.00826051 36.92832085 76.18759384 33.203125 87.48828125 C32.24428186 90.28698249 31.21254679 92.99940011 30.1015625 95.73828125 C24.41560265 109.83009096 19.90473703 124.20941661 16.6875 139.0625 C16.34259521 140.63523682 16.34259521 140.63523682 15.99072266 142.23974609 C11.94001725 161.88789296 10.52959322 181.41082645 10.3125 201.4375 C10.209375 208.883125 10.10625 216.32875 10 224 C-9.14 224 -28.28 224 -48 224 C-48 190.51439033 -48 190.51439033 -46.45581055 174.05004883 C-46.18565964 171.16786559 -45.9341315 168.28450692 -45.68554688 165.40039062 C-43.54071189 141.03992796 -40.05605719 116.84174248 -36.68023682 92.62854004 C-36.16575161 88.93548068 -35.65332261 85.24213599 -35.140625 81.54882812 C-34.39208895 76.1592878 -33.64287415 70.76984286 -32.89208984 65.38061523 C-32.74347504 64.31383041 -32.59486023 63.24704559 -32.44174194 62.14793396 C-32.12069172 59.86007133 -31.79047408 57.57348933 -31.45474243 55.28773499 C-31.03289822 52.23785031 -30.83422389 49.32610287 -30.8125 46.25 C-30.79832031 45.32703125 -30.78414062 44.4040625 -30.76953125 43.453125 C-30.82841867 40.74339462 -30.82841867 40.74339462 -33 38 C-37.24508666 37.34690974 -39.30800333 37.53773878 -42.90625 39.94140625 C-46.84397083 43.40941148 -48.93707012 47.80093223 -51.25 52.4375 C-51.683125 53.27087891 -52.11625 54.10425781 -52.5625 54.96289062 C-54.75062533 59.23446246 -56.60444835 63.39325551 -58 68 C-58.33 68.66 -58.66 69.32 -59 70 C-67.1698614 68.56933303 -75.05394988 66.35862583 -83 64 C-80.48272091 44.22836134 -68.81235236 20.66952456 -53 8 C-38.1547431 -3.00803379 -17.25717698 -10.23272921 0 0 Z " fill="#FCFCFD" transform="translate(615,401)"/>
<path d="M0 0 C10.13868976 7.23993988 18.0025317 16.4857558 20.5703125 28.92578125 C21.92795831 38.98723857 20.72545694 48.27422533 14.97265625 56.84375 C9.15206167 63.87436065 2.71981831 68.40193106 -6.48828125 69.40234375 C-14.84404211 69.58440735 -22.12107458 68.93875515 -28.43359375 63.0546875 C-34.25646923 56.19486159 -37.0196671 48.83072308 -36.55078125 39.86328125 C-36.05126395 36.39067544 -35.14028465 33.28602531 -33.87890625 30.01953125 C-32.91087006 27.40892302 -32.4975949 24.79295895 -32.14453125 22.0390625 C-33.45530232 21.3290615 -34.79800465 20.67866264 -36.14453125 20.0390625 C-37.25828125 19.5028125 -38.37203125 18.9665625 -39.51953125 18.4140625 C-49.00046464 14.96004216 -60.92044698 16.33108544 -70.14453125 20.0390625 C-73.48069795 22.0564008 -76.28433778 24.40101998 -79.14453125 27.0390625 C-79.73621094 27.51730469 -80.32789063 27.99554688 -80.9375 28.48828125 C-98.32675771 43.64916726 -104.50355451 74.15937259 -106.14453125 96.0390625 C-107.70008114 133.77530829 -107.70008114 133.77530829 -91.421875 166.84765625 C-81.66924747 176.2322601 -71.87726163 178.52483451 -58.82104492 178.54321289 C-41.36439266 178.17435984 -26.75476742 169.5558046 -14.79296875 157.1484375 C-8.73852101 150.30890753 -4.1077886 142.22566596 -0.14453125 134.0390625 C5.17779845 135.67537746 10.16528451 137.87786291 15.23046875 140.1640625 C16.06191406 140.53660156 16.89335938 140.90914062 17.75 141.29296875 C19.7863113 142.20579796 21.82141414 143.12121848 23.85546875 144.0390625 C23.30627499 148.85732245 21.83215665 152.69173243 19.54296875 156.9140625 C19.19613037 157.55754639 18.84929199 158.20103027 18.49194336 158.86401367 C4.38425951 184.14676528 -17.99174083 206.48992407 -46.32666016 214.66894531 C-73.42538385 221.77661656 -102.15323567 221.93519487 -127.14453125 208.0390625 C-147.66662424 195.59559038 -161.52223849 176.64172632 -167.40234375 153.35546875 C-167.64726562 152.26105469 -167.8921875 151.16664063 -168.14453125 150.0390625 C-168.36882812 149.09933594 -168.593125 148.15960937 -168.82421875 147.19140625 C-173.9330366 121.19242224 -168.95655096 93.66252264 -160.14453125 69.0390625 C-159.7784375 67.95238281 -159.41234375 66.86570312 -159.03515625 65.74609375 C-148.3572323 35.7235747 -126.05630931 9.76358024 -97.703125 -4.71875 C-89.09950115 -8.61436126 -80.33362476 -10.9588445 -71.14453125 -12.9609375 C-70.36319824 -13.1374585 -69.58186523 -13.31397949 -68.77685547 -13.49584961 C-45.21006876 -17.6597087 -20.24390737 -12.40314973 0 0 Z " fill="#FCFCFD" transform="translate(495.14453125,410.9609375)"/>
<path d="M0 0 C9.89334076 9.08769412 13.88216261 20.94813487 14.57275391 34.15380859 C14.63097866 36.40027148 14.64652662 38.64343594 14.6484375 40.890625 C14.66068359 41.60992187 14.67292969 42.32921875 14.68554688 43.0703125 C14.72441998 58.41223278 11.83947831 73.82816873 9.5234375 88.953125 C9.26857141 90.63732309 9.01401367 92.32156787 8.75976562 94.00585938 C8.00245697 99.01050807 7.23384652 104.01336416 6.4609375 109.015625 C6.26623367 110.27892639 6.26623367 110.27892639 6.06759644 111.56774902 C4.65581909 120.70608502 3.20348392 129.82017445 1.3984375 138.890625 C1.05734372 140.66512476 0.71749464 142.43986424 0.37890625 144.21484375 C-0.15471963 147.01026007 -0.69304518 149.80446365 -1.23828125 152.59765625 C-2.97351214 162.38140487 -4.236531 174.32760971 -1.5390625 184.015625 C2.87408604 184.31998007 5.54150388 184.43856447 9.5859375 182.578125 C13.38847584 179.18890605 15.84853194 175.35499895 18.4609375 171.015625 C18.95851563 170.25765625 19.45609375 169.4996875 19.96875 168.71875 C21.83973779 165.32942132 22.9827371 161.88335738 24.1484375 158.203125 C24.37337891 157.51025391 24.59832031 156.81738281 24.83007812 156.10351562 C25.37922659 154.40933418 25.92085612 152.71271867 26.4609375 151.015625 C43.67452973 155.12242112 43.67452973 155.12242112 49.4609375 158.015625 C48.48387183 174.62574146 38.25359179 190.85838224 27.4609375 203.015625 C26.80867188 203.77359375 26.15640625 204.5315625 25.484375 205.3125 C15.97149475 215.64484185 0.51733016 225.14797489 -13.77807617 226.17675781 C-16.42770088 226.22256497 -19.07657514 226.25089262 -21.7265625 226.265625 C-23.0887793 226.2965625 -23.0887793 226.2965625 -24.47851562 226.328125 C-35.42775772 226.39082646 -43.90987669 222.71530342 -52.5390625 216.015625 C-54.9345648 213.54093255 -56.78240298 210.97181579 -58.5390625 208.015625 C-58.92707031 207.3659375 -59.31507813 206.71625 -59.71484375 206.046875 C-70.04674638 187.11131528 -64.39393919 161.2289313 -60.90673828 141.14404297 C-60.35325422 137.94000974 -59.81315093 134.73373554 -59.27134705 131.52770996 C-58.22106577 125.31421199 -57.16688652 119.10145754 -56.08959961 112.89257812 C-53.55121438 98.25620945 -51.20538764 83.59439506 -49.01171875 68.90234375 C-48.71065631 67.06362357 -48.36845609 65.23083551 -47.97265625 63.41015625 C-46.67162468 57.39629705 -46.32895949 51.58698459 -46.2890625 45.453125 C-46.27987793 44.65430908 -46.27069336 43.85549316 -46.26123047 43.0324707 C-46.1052148 38.5508318 -46.1052148 38.5508318 -48.5390625 35.015625 C-52.29781091 34.5059642 -54.95421106 34.21982725 -58.375 35.9375 C-67.64223261 43.06614047 -71.81639502 55.37943221 -75.5390625 66.015625 C-84.55075288 65.69377891 -92.27163228 62.33274117 -100.5390625 59.015625 C-100.03104224 53.40562986 -98.52638257 49.28904173 -95.9140625 44.328125 C-95.5528833 43.63041992 -95.1917041 42.93271484 -94.81958008 42.21386719 C-93.73794881 40.14127464 -92.6391426 38.07846662 -91.5390625 36.015625 C-90.97832031 34.93152344 -90.41757813 33.84742188 -89.83984375 32.73046875 C-85.46912522 24.69808287 -79.94324341 18.44721325 -73.5390625 12.015625 C-72.83136719 11.273125 -72.12367188 10.530625 -71.39453125 9.765625 C-54.32823767 -6.94172168 -20.0115403 -15.63978842 0 0 Z " fill="#FCFCFD" transform="translate(258.5390625,403.984375)"/>
<path d="M0 0 C1.09441406 -0.0309375 1.09441406 -0.0309375 2.2109375 -0.0625 C10.75981797 -0.12356343 17.43230067 3.43413836 23.625 9.25 C31.80629095 19.49015888 32.76735033 28.89108326 31.96240234 41.68457031 C31.16719938 47.73087475 28.2178762 52.39377505 24.625 57.25 C24.13515625 57.95253906 23.6453125 58.65507812 23.140625 59.37890625 C19.48432287 64.13415312 14.80368553 67.31371915 9.625 70.25 C8.89796875 70.66636719 8.1709375 71.08273437 7.421875 71.51171875 C-1.21900533 75.69990054 -11.71261774 75.8769022 -20.85546875 73.25 C-30.16799291 69.09536311 -35.99624031 62.20826551 -39.875 52.875 C-41.76433073 46.95621168 -41.90131459 41.4044851 -41.375 35.25 C-41.31570312 34.49074219 -41.25640625 33.73148437 -41.1953125 32.94921875 C-39.51795322 21.76000499 -31.72893864 12.59301591 -22.98828125 5.9921875 C-15.67404236 1.11602824 -8.69784383 0.06082408 0 0 Z " fill="#FBFCFD" transform="translate(253.375,286.75)"/>
<path d="M0 0 C0.66 0 1.32 0 2 0 C2.06058594 0.89203125 2.12117187 1.7840625 2.18359375 2.703125 C2.26738281 3.87359375 2.35117187 5.0440625 2.4375 6.25 C2.55931641 7.99023438 2.55931641 7.99023438 2.68359375 9.765625 C2.88811794 12.85657523 2.88811794 12.85657523 3.625 15.1875 C4.31231011 18.50949888 2.42370557 21.03869242 1 24 C0.34 24 -0.32 24 -1 24 C-0.67 16.08 -0.34 8.16 0 0 Z " fill="#404B9F" transform="translate(752,439)"/>
<path d="M0 0 C1.32 0.66 2.64 1.32 4 2 C3.35474023 3.4585872 2.7087728 4.91686137 2.0625 6.375 C1.70285156 7.18710937 1.34320312 7.99921875 0.97265625 8.8359375 C0.3430097 10.23683785 -0.31312642 11.62625284 -1 13 C-1.66 13 -2.32 13 -3 13 C-2.68817931 11.58318366 -2.37551263 10.16655349 -2.0625 8.75 C-1.88847656 7.96109375 -1.71445312 7.1721875 -1.53515625 6.359375 C-1.052444 4.23121297 -0.53836822 2.11467158 0 0 Z " fill="#535EAC" transform="translate(631,451)"/>
<path d="M0 0 C0.99 0.33 1.98 0.66 3 1 C1.35 2.65 -0.3 4.3 -2 6 C-2.99 5.67 -3.98 5.34 -5 5 C-3.35 3.35 -1.7 1.7 0 0 Z " fill="#4954A7" transform="translate(573,439)"/>
</svg>
